<svg width="512" height="24" viewBox="0 0 512 24" fill="none" xmlns="http://www.w3.org/2000/svg">
<path d="M1.99997 10.5C1.17154 10.5 0.499969 11.1716 0.499969 12C0.499969 12.8284 1.17154 13.5 1.99997 13.5L1.99997 10.5ZM511.061 13.0607C511.646 12.4749 511.646 11.5251 511.061 10.9393L501.515 1.3934C500.929 0.807611 499.979 0.807611 499.393 1.3934C498.808 1.97919 498.808 2.92893 499.393 3.51472L507.879 12L499.393 20.4853C498.808 21.0711 498.808 22.0208 499.393 22.6066C499.979 23.1924 500.929 23.1924 501.515 22.6066L511.061 13.0607ZM1.99997 13.5L510 13.5L510 10.5L1.99997 10.5L1.99997 13.5Z" fill="white"/>
</svg>
